<svg class="svg-icon" style="width: 1.125em; height: 1em;vertical-align: middle;fill: currentColor;overflow: hidden;" viewBox="0 0 1152 1024" version="1.1" xmlns="http://www.w3.org/2000/svg"><path d="M672.4 128H95.6C42.8 128 0 170.8 0 223.6v576.8C0 853.2 42.8 896 95.6 896h576.8c52.8 0 95.6-42.8 95.6-95.6V223.6c0-52.8-42.8-95.6-95.6-95.6zM608 528c0 17.6-14.4 32-32 32h-144v144c0 17.6-14.4 32-32 32h-32c-17.6 0-32-14.4-32-32v-144H192c-17.6 0-32-14.4-32-32v-32c0-17.6 14.4-32 32-32h144v-144c0-17.6 14.4-32 32-32h32c17.6 0 32 14.4 32 32v144h144c17.6 0 32 14.4 32 32v32z m544-273v513.8c0 51-58.2 80.8-100.8 51.6L832 669.4V354.6l219.2-151c42.6-29.4 100.8 0.6 100.8 51.4z"  /></svg>